<?xml version="1.0" encoding="utf-8"?>
<!-- Generator: Adobe Illustrator 18.1.0, SVG Export Plug-In . SVG Version: 6.00 Build 0)  -->
<!DOCTYPE svg PUBLIC "-//W3C//DTD SVG 1.1//EN" "http://www.w3.org/Graphics/SVG/1.1/DTD/svg11.dtd">
<svg version="1.1" id="レイヤー_1" xmlns="http://www.w3.org/2000/svg" xmlns:xlink="http://www.w3.org/1999/xlink" x="0px"
	 y="0px" viewBox="0 0 1000 163" enable-background="new 0 0 1000 163" xml:space="preserve">
<path fill="#FFFFFF" d="M18.7,58.3H42v8.9H0l21.7-26.3c2.1-2.6,3.9-4.9,5.4-6.8c1.4-1.9,2.5-3.5,3.3-4.8c1.5-2.5,2.3-4.8,2.3-6.8
	c0-2.9-1-5.4-3.1-7.3c-2.1-2-4.6-3-7.6-3c-6.3,0-9.9,3.7-10.8,11.2H1.7c1.5-13.2,8.2-19.8,20-19.8C27.4,3.6,32.2,5.4,36,9
	c3.9,3.6,5.8,8.1,5.8,13.4c0,3.4-0.9,6.7-2.7,10c-0.9,1.7-2.3,3.7-4,6.1c-1.8,2.3-4,5.1-6.7,8.3L18.7,58.3z"/>
<path fill="#FFFFFF" d="M51,35.5c0-10,2.3-17.9,7-23.8c4.2-5.4,9.2-8.1,15.1-8.1S84,6.3,88.1,11.7c4.6,5.9,7,14,7,24.2
	c0,10.2-2.3,18.3-7,24.2c-4.2,5.4-9.2,8.1-15.1,8.1c-5.9,0-10.9-2.7-15.1-8.1C53.3,54.2,51,46,51,35.5z M60.3,35.5
	c0,6.9,1.2,12.7,3.6,17.3c2.4,4.5,5.5,6.8,9.2,6.8c3.7,0,6.7-2.3,9.2-6.8c2.4-4.5,3.6-10.1,3.6-17s-1.2-12.5-3.6-17
	c-2.4-4.5-5.5-6.7-9.2-6.7c-3.7,0-6.7,2.2-9.1,6.7C61.5,23.3,60.3,28.9,60.3,35.5z"/>
<path fill="#FFFFFF" d="M114.4,13.5h-10.8l5.2-8.9h15.1v62.5h-9.4V13.5z"/>
<path fill="#FFFFFF" d="M177.4,49.7h6.6v8.6h-6.6v8.9H168v-8.9h-30.7L177.4,0V49.7z M168,49.7V28.8l-14.4,20.9H168z"/>
<path fill="#FFFFFF" d="M193.2,62.6c0-1.5,0.6-2.8,1.7-3.9c1.1-1.1,2.4-1.7,4-1.7c1.5,0,2.9,0.6,4,1.7c1.1,1.1,1.7,2.4,1.7,4
	c0,1.6-0.6,2.9-1.7,4c-1.1,1.1-2.4,1.6-4,1.6c-1.6,0-2.9-0.5-4-1.6C193.7,65.6,193.2,64.2,193.2,62.6z"/>
<path fill="#FFFFFF" d="M225.8,13.5H215l5.2-8.9h15.1v62.5h-9.4V13.5z"/>
<path fill="#FFFFFF" d="M268.6,58.3h23.3v8.9h-42l21.7-26.3c2.1-2.6,3.9-4.9,5.4-6.8c1.4-1.9,2.5-3.5,3.3-4.8
	c1.5-2.5,2.3-4.8,2.3-6.8c0-2.9-1-5.4-3.1-7.3c-2.1-2-4.6-3-7.6-3c-6.3,0-9.9,3.7-10.8,11.2h-9.4c1.5-13.2,8.2-19.8,20-19.8
	c5.7,0,10.5,1.8,14.3,5.4c3.9,3.6,5.8,8.1,5.8,13.4c0,3.4-0.9,6.7-2.7,10c-0.9,1.7-2.3,3.7-4,6.1c-1.8,2.3-4,5.1-6.7,8.3L268.6,58.3
	z"/>
<path fill="#FFFFFF" d="M304.5,62.6c0-1.5,0.6-2.8,1.7-3.9c1.1-1.1,2.4-1.7,4-1.7c1.5,0,2.9,0.6,4,1.7c1.1,1.1,1.7,2.4,1.7,4
	c0,1.6-0.6,2.9-1.7,4c-1.1,1.1-2.4,1.6-4,1.6c-1.6,0-2.9-0.5-4-1.6C305,65.6,304.5,64.2,304.5,62.6z"/>
<path fill="#FFFFFF" d="M342,58.3h23.3v8.9h-42L345,40.9c2.1-2.6,3.9-4.9,5.4-6.8c1.4-1.9,2.5-3.5,3.3-4.8c1.5-2.5,2.3-4.8,2.3-6.8
	c0-2.9-1-5.4-3.1-7.3c-2.1-2-4.6-3-7.6-3c-6.3,0-9.9,3.7-10.8,11.2h-9.4c1.5-13.2,8.2-19.8,20-19.8c5.7,0,10.5,1.8,14.3,5.4
	c3.9,3.6,5.8,8.1,5.8,13.4c0,3.4-0.9,6.7-2.7,10c-0.9,1.7-2.3,3.7-4,6.1c-1.8,2.3-4,5.1-6.7,8.3L342,58.3z"/>
<path fill="#FFFFFF" d="M385.2,34.6c-4.6-3.2-6.9-7.6-6.9-13.2c0-5.1,1.7-9.3,5.2-12.7c3.5-3.4,7.9-5.1,13.1-5.1
	c5.2,0,9.5,1.7,13,5.1c3.5,3.4,5.2,7.6,5.2,12.7c0,5.4-2.3,9.8-6.8,13.2c2.5,1.4,4.5,3.3,5.9,5.9c1.5,2.6,2.2,5.5,2.2,8.7
	c0,5.5-1.8,10.1-5.4,13.6c-3.6,3.5-8.3,5.3-13.9,5.3c-5.8,0-10.5-1.8-14.3-5.3c-3.8-3.6-5.7-8-5.7-13.4
	C376.7,42.4,379.5,37.5,385.2,34.6z M386,49.1c0,2.9,1,5.4,3,7.4c2,2,4.5,3.1,7.4,3.1c2.9,0,5.3-1,7.3-3c2-2.1,3-4.5,3-7.4
	c0-2.9-1-5.3-3-7.4c-2-2-4.5-3-7.3-3c-2.8,0-5.3,1-7.3,3C387,43.8,386,46.3,386,49.1z M387.2,21.4c0,2.7,0.9,4.9,2.7,6.7
	c1.8,1.8,4,2.8,6.6,2.8c2.6,0,4.8-0.9,6.6-2.8s2.8-4,2.8-6.6c0-2.6-0.9-4.8-2.8-6.6s-4-2.8-6.6-2.8s-4.8,0.9-6.6,2.8
	S387.2,18.9,387.2,21.4z"/>
<path fill="#FFFFFF" d="M432.3,27.1V61h3.9v4.3h-8.6V22.8h8.6v4.3H432.3z"/>
<path fill="#FFFFFF" d="M443.3,59.7V28.4h6.6c3.1,0,5.6,0.3,7.4,0.9c2,0.6,3.7,1.6,5.3,3.1c3.2,2.9,4.8,6.8,4.8,11.6
	c0,4.8-1.7,8.7-5,11.7c-1.7,1.5-3.5,2.5-5.3,3.1c-1.7,0.6-4.2,0.9-7.3,0.9H443.3z M448,55.2h2.1c2.1,0,3.9-0.2,5.3-0.7
	c1.4-0.5,2.7-1.2,3.8-2.2c2.3-2.1,3.5-4.9,3.5-8.3c0-3.4-1.1-6.2-3.4-8.3c-2.1-1.9-5.1-2.9-9.1-2.9H448V55.2z"/>
<path fill="#FFFFFF" d="M489.4,52.1H476l-3.5,7.6h-5.1l15.5-33.2l14.9,33.2h-5.2L489.4,52.1z M487.5,47.6L482.8,37L478,47.6H487.5z"
	/>
<path fill="#FFFFFF" d="M504.5,46.2l-10.2-17.8h5.4l7.1,12.5l7.2-12.5h5.4l-10.2,17.8v13.5h-4.7V46.2z"/>
<path fill="#FFFFFF" d="M529.7,32.8h-5.4l2.6-4.4h7.5v31.2h-4.7V32.8z"/>
<path fill="#FFFFFF" d="M547.4,61V27.1h-3.9v-4.3h8.6v42.5h-8.6V61H547.4z"/>
<path fill="#FFFFFF" d="M42.1,159.2h-7.8v-20.7c-9.3,10.1-18.5,15.9-26.9,20c-2.3-3-3.5-4.3-7-6.4c10.7-3.4,20.4-9.5,28.5-17.3H10.6
	v-29.4h23.8v-4.9H1.5v-7h32.9v-8.3l8.4,0.4c0.8,0,1.9,0.2,1.9,1.1c0,1.1-1.5,1.4-2.6,1.6v5.2h33.1v7H42.1v4.9h24.2v29.4H47.5
	c3.9,3.2,14.2,11.4,28.5,16.6c-3.2,2.8-4.9,4.3-6.1,6.7c-6.6-2.9-16.9-8.7-27.8-19.9V159.2z M34.4,111.7H18.9v5.3h15.5V111.7z
	 M34.4,122.6H18.9v5.5h15.5V122.6z M42.1,117.1h16v-5.3h-16V117.1z M42.1,128.1h16v-5.5h-16V128.1z"/>
<path fill="#FFFFFF" d="M78.4,129c8.1-6.1,14.5-14.5,22.6-25c3.6-4.6,6.4-5.4,8.7-5.4c5.3,0,8.1,3.5,13,9.6
	c13.4,16.7,25.3,27.4,33.5,33c-2.5,2.8-3.6,4.5-6,7.9c-13.8-11.1-24-23.6-34.2-35.8c-3.5-4.2-4.7-5.3-6.4-5.3c-1.2,0-2.7,0.6-5,3.8
	c-11.3,15.3-13.2,17.9-19.1,24L78.4,129z"/>
<path fill="#FFFFFF" d="M254.3,100.3h-19.3l-3.1,10.3c0.5-0.1,0.9-0.1,1.3-0.1c0.4,0,0.8,0,1.2,0c6.1,0,11.1,2,14.9,6.2
	c3.9,4.1,5.9,9.3,5.9,15.7c0,6.6-2.2,12-6.6,16.3c-4.4,4.3-10,6.4-16.7,6.4c-8.3,0-14.8-3.9-19.6-11.7l7.1-6c2,3.3,4,5.7,6,7.1
	c2,1.4,4.4,2,7.3,2c3.8,0,6.9-1.3,9.5-4c2.6-2.7,3.8-6,3.8-9.9c0-4-1.3-7.3-3.8-9.8c-2.5-2.6-5.7-3.9-9.5-3.9c-4.2,0-7.9,1.8-11,5.5
	h-3.1l9.8-32.9h25.8V100.3z"/>
<path fill="#FFFFFF" d="M274.7,121.4c-4.6-3.2-6.9-7.6-6.9-13.2c0-5.1,1.7-9.3,5.2-12.7c3.5-3.4,7.9-5.1,13.1-5.1
	c5.2,0,9.5,1.7,13,5.1c3.5,3.4,5.2,7.6,5.2,12.7c0,5.4-2.3,9.8-6.8,13.2c2.5,1.4,4.5,3.3,5.9,5.9c1.5,2.6,2.2,5.5,2.2,8.7
	c0,5.5-1.8,10.1-5.4,13.6c-3.6,3.5-8.3,5.3-13.9,5.3c-5.8,0-10.5-1.8-14.3-5.3c-3.8-3.6-5.7-8-5.7-13.4
	C266.2,129.1,269,124.2,274.7,121.4z M275.5,135.8c0,2.9,1,5.4,3,7.4c2,2,4.5,3.1,7.4,3.1c2.9,0,5.3-1,7.3-3c2-2.1,3-4.5,3-7.4
	c0-2.9-1-5.3-3-7.4c-2-2-4.5-3-7.3-3c-2.8,0-5.3,1-7.3,3C276.5,130.6,275.5,133,275.5,135.8z M276.6,108.1c0,2.7,0.9,4.9,2.7,6.7
	c1.8,1.8,4,2.8,6.6,2.8c2.6,0,4.8-0.9,6.6-2.8c1.8-1.8,2.8-4,2.8-6.6c0-2.6-0.9-4.8-2.8-6.6c-1.8-1.8-4-2.8-6.6-2.8
	s-4.8,0.9-6.6,2.8C277.6,103.5,276.6,105.6,276.6,108.1z"/>
<path fill="#FFFFFF" d="M317.2,153.9V91.4h9.4c4.2,0,7.5,0.3,10,1c2.5,0.6,4.6,1.7,6.4,3.3c1.8,1.6,3.1,3.6,4.2,6
	c1.1,2.4,1.6,4.8,1.6,7.3c0,4.5-1.7,8.3-5.1,11.4c3.3,1.1,5.9,3.1,7.9,6c1.9,2.8,2.9,6.1,2.9,9.8c0,4.9-1.7,9-5.2,12.4
	c-2.1,2.1-4.4,3.5-7,4.3c-2.8,0.8-6.4,1.2-10.6,1.2H317.2z M326.7,118.2h3c3.5,0,6.1-0.8,7.7-2.3c1.6-1.6,2.4-3.8,2.4-6.9
	c0-2.9-0.8-5.2-2.5-6.7c-1.7-1.5-4.1-2.3-7.3-2.3h-3.3V118.2z M326.7,145h5.8c4.3,0,7.4-0.8,9.4-2.5c2.1-1.8,3.2-4.1,3.2-6.9
	c0-2.7-1-5-3-6.8c-2-1.8-5.5-2.7-10.6-2.7h-4.8V145z"/>
<path fill="#FFFFFF" d="M474.6,116.7h-39.5v-6.5c-4.9,3.4-10.2,6.2-13.4,7.8c-1.6-2.8-5.4-5.4-6.6-6.3c5.7-2.3,24.5-10.1,35.7-27.7
	l9,1.5c0.8,0.2,1.5,0.6,1.5,1.2s-0.4,0.7-2,1.5c6.2,8.8,26,18.8,33.4,21c-2,2-3.6,4.5-5.1,7.3c-4.9-1.7-11.6-5.6-12.9-6.3V116.7z
	 M427.3,132v-7.9h49.9l3.9,3.4c-4.8,12.4-12.5,23.5-21.9,32.8c-1.9-1.5-5.1-3.6-8.4-4.5c2.3-1.9,6.2-5.5,7.6-7.1
	c0.9-1.1,7.9-8.9,10.6-16.6H427.3z M472.7,109c-10-5.8-16.7-12.8-18.9-15.4c-6.2,6.8-10.2,10.3-17.1,15.4H472.7z"/>
<path fill="#FFFFFF" d="M522.3,105.8c0.6,0.2,1.2,0.6,1.2,1.3c0,0.9-1.4,1.1-2.3,1c-0.8,1.2-6.1,8.3-7,9.6c0.6,0.2,1.3,0.5,1.3,1.1
	c0,0.6-0.7,1.1-1.5,1.4v39h-8.6v-31.7c-2.8,2.8-4,3.9-5.7,5.4c-0.9-1.2-2.9-4-6.4-6.2c11.9-8.7,18.5-19,21.5-24.2L522.3,105.8z
	 M519.7,89c0.6,0.3,1.1,0.6,1.1,1.1c0,1-1.7,0.9-2.1,0.8c-5.5,7-10.4,12.7-17.7,18.4c-1.9-2.3-4-4.1-6.6-5.3
	c8.6-6.6,12.9-11.2,18.1-19L519.7,89z M525.2,92.2c2.8,2,4.1,2.9,5.6,4.2c3.1-4,6-8,8.6-12.3l6.9,3.4c0.5,0.2,1,0.6,1,1.1
	c0,0.9-1.2,1-2.3,0.8c-2.9,3.9-7.9,10.2-8.9,11.5c0.7,0.6,1.7,1.5,4.1,4c2.3-2.5,10.4-12.2,13.9-17.4l7.3,3.8c0.6,0.3,1,0.6,1,1.2
	c0,0.7-1.1,1.1-2.3,0.8c-5.8,6.7-12.1,13.6-17.9,19.7c7.6-0.6,8.5-0.7,14.4-1.2c-2-3-2.9-4.2-3.9-5.5l6.2-3.8
	c4,4.7,8.6,11.6,11.7,17.7c-3.7,2-4.2,2.3-6.6,4.2c-0.6-1.4-1.3-2.8-3.6-6.6c-7.6,1-8.8,1.1-22.7,2.5l4.5,2.4
	c0.6,0.3,0.9,0.6,0.9,1.1c0,0.5-0.5,0.8-1.1,0.8c-0.2,0-0.7,0-1.1-0.1c-0.5,0.8-0.7,1.2-1.3,2h20.6l3.2,4.4
	c-1.9,2.5-5.8,7.7-13.1,14c9.2,5.4,16.3,6.7,20.9,7.4c-3,2.9-3.6,3.7-5.3,7c-8-1.9-16.2-5.2-22.3-9.5c-3.4,2.3-12,7.2-20.7,9.8
	c-1.2-3.2-2.3-4.6-4.9-7.1c2.9-0.6,9.6-2.1,19.4-7.7c-0.6-0.6-3.9-3.6-6.4-7.2c-3.6,3.9-5.3,5.6-7.7,7.7c-2.4-2.3-4-3.4-7.1-4.7
	c6.3-4.1,14-12.2,18.3-20c-2.8,0.3-8.3,0.9-10.7,1.1c-0.3,0.8-0.7,1.5-1.4,1.5c-0.7,0-0.8-0.8-1.1-1.9l-1.4-7
	c0.2,0,11.3-0.6,12.1-0.6c0.6-0.6,1.3-1.4,3-3.2c-0.6-0.7-7.4-8-15.1-13L525.2,92.2z M536.8,133.2c2.3,3.1,4,4.9,7.1,7.4
	c4.9-3.6,6.7-6.1,7.8-7.4H536.8z"/>
<path fill="#FFFFFF" d="M616.7,111.8c0.2,1.8,0.3,4.1,1.1,8.2h30v7h-27.9c5,14.7,16,22.8,18.9,22.8c3,0,3.7-7,4-10.7
	c2,1.7,4.9,3.6,7.4,4.3c-1.5,12.5-4.5,15.5-9.8,15.5c-6.1,0-13.1-6.8-15-8.6c-9.6-9.3-12.7-19.2-14-23.4H591v19.4
	c11.8-2.9,17.5-4.8,21.7-6.2c-0.4,3.7-0.5,4.7-0.3,7.6c-7.5,2.6-24,7.5-32.9,9.4c-0.1,0.6-0.2,2.2-1.5,2.2c-0.5,0-0.8-0.4-1.1-1.5
	l-2.3-8.2c3-0.4,5.2-0.8,7.6-1.4V88.1h57.6v23.6H616.7z M591,95.5v8.9h40.2v-8.9H591z M591,111.8v8.2h18.6c-0.3-1.6-0.7-4-1.3-8.2
	H591z"/>
<path fill="#FFFFFF" d="M726.5,101v7.4h-30v15.1h23.2v7.8h-23.2v18.2h32.6v7.5h-74.3v-7.5h32.9v-18.2H664v-7.8h23.6v-15.1h-30V101
	h34.3c-1.6-1.9-6.4-7.4-13.1-11.3l5.8-5.7c3.6,2,11.8,8.5,15,12.1c-1.4,1.3-1.8,1.6-5.1,4.9H726.5z"/>
<path fill="#FFFFFF" d="M765.7,138.4c0.5,0.2,1.2,0.8,1.2,1.4c0,0.6-0.6,0.8-1.1,0.8c-0.3,0-1-0.1-1.5-0.2
	c-3.9,4.2-12.8,13.8-23.3,19.6c-1.5-1.9-4.9-4.5-7.5-5.9c2.8-1.4,14.6-7.3,24.5-19.9L765.7,138.4z M779.6,100.9v-16l9.4,0.6
	c0.7,0.1,1.4,0.3,1.4,1.1c0,0.9-1.4,1.3-2.1,1.5v12.9h15.3v7.7h-15.3v16.4h19v8h-73.7v-8h19.2v-16.4h-15.2v-7.7h15.2V85.1l9.2,0.6
	c0.6,0,1.6,0.2,1.6,1.1c0,0.9-1.1,1.2-2.3,1.5v12.6H779.6z M761.4,108.6v16.4h18.2v-16.4H761.4z M782.8,134.2
	c5.1,6.6,10.9,12.6,24.3,19.7c-2.5,1.6-5.3,4.2-6.5,6.2c-6.6-3.6-17-10.7-24.9-21.3L782.8,134.2z"/>
<path fill="#FFFFFF" d="M838,159h-8.3v-28.8c-3.1,6.2-6.6,12.1-11.2,17.2c-2.3-2.3-4-3.8-7.5-5.1c9.9-9.1,15.3-20.9,17.2-26.1h-13.8
	v-7.9h15.2v-9.4c-0.7,0.2-9.6,1.9-11.2,2.1c-0.2-0.6-1.9-4.4-4.2-7.4c14.7-1.2,24.5-5.3,30.3-8.5l5.5,6.2c0.4,0.5,0.6,0.8,0.6,1.5
	c0,0.6-0.6,0.8-0.9,0.8c-0.7,0-1.5-0.4-2.2-0.6c-4.8,2.1-5.6,2.3-9.7,3.7v11.7h13v7.9h-12.4c2.2,4.1,7.2,11.4,13.7,17.1
	c-3.1,2.1-3.7,2.8-6,6.3c-4.1-4.3-6-7.3-8.3-11.1V159z M862.1,149.9v6.7h-8.5V93.1h31.3v62.8h-8.5v-5.9H862.1z M876.4,142.3v-41.4
	h-14.3v41.4H876.4z"/>
<path fill="#FFFFFF" d="M904.5,154.6v4.4h-8.3V87.9h67.7v71h-8.3v-4.3H904.5z M955.6,147.1v-52h-51.1v52H955.6z M933.6,116.7h14.7
	v6.5h-5.2c1.4,1.5,3.9,4.5,6.2,8.3c-1.4,0.8-2.7,1.8-4,2.8h7v6.7H908v-6.7h17.3v-11h-13.7v-6.5h13.7v-9.1H909v-6.6h42.5v6.6h-17.9
	V116.7z M941.7,123.1h-8v11h8.7c-0.6-0.9-2.8-4.5-5.5-7.6L941.7,123.1z"/>
<rect x="160.3" y="116.5" fill="#FFFFFF" width="47.9" height="5.8"/>
<polygon fill="#FFFFFF" points="388.7,159.3 382.9,159.3 382.9,84.2 411.6,84.2 411.6,90 388.7,90 "/>
<polygon fill="#FFFFFF" points="1000,162.2 971.3,162.2 971.3,156.4 994.2,156.4 994.2,87.1 1000,87.1 "/>
</svg>
