<?xml version="1.0" encoding="utf-8"?>
<!-- Generator: Adobe Illustrator 18.1.0, SVG Export Plug-In . SVG Version: 6.00 Build 0)  -->
<!DOCTYPE svg PUBLIC "-//W3C//DTD SVG 1.1//EN" "http://www.w3.org/Graphics/SVG/1.1/DTD/svg11.dtd">
<svg version="1.1" id="レイヤー_1" xmlns="http://www.w3.org/2000/svg" xmlns:xlink="http://www.w3.org/1999/xlink" x="0px"
	 y="0px" viewBox="0 0 1000 306" enable-background="new 0 0 1000 306" xml:space="preserve">
<g>
	<g>
		<path fill="#FFFFFF" d="M308.2,247.7v11h-38.9v-3.2l16-19.9c1.5-2,3.1-3.9,4.5-5.9c3.8-5.4,5.2-9.1,5.2-12.2
			c0-4.5-3.3-7.3-7.6-7.3c-1.5,0-3.1,0.3-4.4,1.2c-3.4,2.3-3.4,6.7-3.4,10.2h-12.1c0.1-4.7,0.4-8.4,2.6-12.7
			c1.4-2.7,4.5-7.5,12.2-9.2c1-0.2,2.9-0.6,5.5-0.6c2.1,0,7.9,0.2,12.9,4.2c2.2,1.8,6.7,6.4,6.7,14.1c-0.1,6.3-2.4,11.1-9.7,20.5
			c-1.5,1.9-3,3.7-4.5,5.5c-1.3,1.6-2.6,3-3.9,4.5c2.6-0.2,5.4-0.2,8-0.2L308.2,247.7L308.2,247.7z"/>
	</g>
	<g>
		<polygon fill="#FFFFFF" points="69,0 0,258.7 43.1,258.7 112.1,0 		"/>
		<polygon fill="#FFFFFF" points="112.1,0 180.9,258.7 177.6,258.7 108.7,0 		"/>
		<polygon fill="#FFFFFF" points="246.6,0 177.6,258.7 220.7,258.7 289.7,0 		"/>
		<polygon fill="#FFFFFF" points="424.1,0 355.2,258.7 398.3,258.7 467.2,0 		"/>
		<polygon fill="#FFFFFF" points="601.7,0 532.7,258.7 575.8,258.7 644.8,0 		"/>
		<polygon fill="#FFFFFF" points="779.3,0 710.3,258.7 753.4,258.7 822.4,0 		"/>
		<polygon fill="#FFFFFF" points="956.9,0 887.9,258.7 931,258.7 1000,0 		"/>
		<polygon fill="#FFFFFF" points="467.2,0 536.1,258.7 532.7,258.7 463.9,0 		"/>
		<polygon fill="#FFFFFF" points="644.8,0 713.7,258.7 710.3,258.7 641.5,0 		"/>
		<polygon fill="#FFFFFF" points="822.4,0 891.3,258.7 887.9,258.7 819.1,0 		"/>
		<polygon fill="#FFFFFF" points="289.7,0 358.5,258.7 355.2,258.7 286.3,0 		"/>
	</g>
</g>
<g>
	<path fill="#FFFFFF" d="M1.3,289.5v-10.6h2.2c1.1,0,1.9,0.1,2.5,0.3c0.7,0.2,1.3,0.6,1.8,1c1.1,1,1.6,2.3,1.6,3.9
		c0,1.6-0.6,2.9-1.7,3.9c-0.6,0.5-1.2,0.8-1.8,1c-0.6,0.2-1.4,0.3-2.5,0.3H1.3z M2.9,288h0.7c0.7,0,1.3-0.1,1.8-0.2
		c0.5-0.2,0.9-0.4,1.3-0.8c0.8-0.7,1.2-1.6,1.2-2.8c0-1.2-0.4-2.1-1.2-2.8c-0.7-0.6-1.7-1-3.1-1H2.9V288z"/>
	<path fill="#FFFFFF" d="M17.9,280.4h-4.2v2.5h4.1v1.5h-4.1v3.5h4.2v1.5H12v-10.6h5.8V280.4z"/>
	<path fill="#FFFFFF" d="M20,289.5l2.2-11.3l3.6,8.2l3.8-8.2l2,11.3H30l-1-6.4l-3.1,6.9l-3-6.9l-1.1,6.4H20z"/>
	<path fill="#FFFFFF" d="M33.6,284.2c0-1.5,0.5-2.8,1.6-3.8c1.1-1.1,2.4-1.6,3.9-1.6c1.5,0,2.8,0.5,3.9,1.6c1.1,1.1,1.6,2.4,1.6,3.9
		c0,1.5-0.5,2.8-1.6,3.9c-1.1,1.1-2.4,1.6-3.9,1.6c-1.4,0-2.6-0.5-3.7-1.4C34.2,287.2,33.6,285.9,33.6,284.2z M35.2,284.2
		c0,1.2,0.4,2.1,1.2,2.9c0.8,0.8,1.7,1.1,2.7,1.1c1.1,0,2-0.4,2.8-1.1c0.8-0.8,1.1-1.7,1.1-2.8c0-1.1-0.4-2.1-1.1-2.8
		c-0.7-0.8-1.7-1.1-2.8-1.1c-1.1,0-2,0.4-2.8,1.1C35.6,282.1,35.2,283.1,35.2,284.2z"/>
	<path fill="#FFFFFF" d="M55,279.5v1.9c-0.9-0.8-1.9-1.2-2.9-1.2c-1.1,0-2,0.4-2.7,1.2c-0.7,0.8-1.1,1.7-1.1,2.8
		c0,1.1,0.4,2,1.1,2.8s1.7,1.1,2.7,1.1c0.6,0,1-0.1,1.4-0.3c0.2-0.1,0.4-0.2,0.7-0.4c0.2-0.2,0.5-0.3,0.7-0.6v1.9
		c-0.9,0.5-1.9,0.8-2.9,0.8c-1.5,0-2.8-0.5-3.9-1.6c-1.1-1.1-1.6-2.3-1.6-3.8c0-1.3,0.4-2.5,1.3-3.6c1.1-1.3,2.5-1.9,4.2-1.9
		C53.2,278.7,54.1,279,55,279.5z"/>
	<path fill="#FFFFFF" d="M61.2,285l3.3,4.5h-1.9l-3-4.3h-0.3v4.3h-1.6v-10.6h1.9c1.4,0,2.4,0.3,3,0.8c0.7,0.6,1,1.4,1,2.3
		c0,0.7-0.2,1.4-0.6,1.9S61.9,284.9,61.2,285z M59.3,283.8h0.5c1.5,0,2.3-0.6,2.3-1.7c0-1.1-0.7-1.6-2.2-1.6h-0.6V283.8z"/>
	<path fill="#FFFFFF" d="M73.4,286.9h-4.5l-1.2,2.6H66l5.2-11.2l5,11.2h-1.7L73.4,286.9z M72.7,285.4l-1.6-3.6l-1.6,3.6H72.7z"/>
	<path fill="#FFFFFF" d="M80.4,280.4v9.1h-1.6v-9.1h-2.4v-1.5h6.4v1.5H80.4z"/>
	<path fill="#FFFFFF" d="M86.5,278.9v10.6h-1.6v-10.6H86.5z"/>
	<path fill="#FFFFFF" d="M97.4,279.5v1.9c-0.9-0.8-1.9-1.2-2.9-1.2c-1.1,0-2,0.4-2.7,1.2c-0.7,0.8-1.1,1.7-1.1,2.8
		c0,1.1,0.4,2,1.1,2.8s1.7,1.1,2.7,1.1c0.6,0,1-0.1,1.4-0.3c0.2-0.1,0.4-0.2,0.7-0.4c0.2-0.2,0.5-0.3,0.7-0.6v1.9
		c-0.9,0.5-1.9,0.8-2.9,0.8c-1.5,0-2.8-0.5-3.9-1.6c-1.1-1.1-1.6-2.3-1.6-3.8c0-1.3,0.4-2.5,1.3-3.6c1.1-1.3,2.5-1.9,4.2-1.9
		C95.6,278.7,96.5,279,97.4,279.5z"/>
	<path fill="#FFFFFF" d="M108.4,285l3.3,4.5h-1.9l-3-4.3h-0.3v4.3h-1.6v-10.6h1.9c1.4,0,2.4,0.3,3,0.8c0.7,0.6,1,1.4,1,2.3
		c0,0.7-0.2,1.4-0.6,1.9S109.1,284.9,108.4,285z M106.4,283.8h0.5c1.5,0,2.3-0.6,2.3-1.7c0-1.1-0.7-1.6-2.2-1.6h-0.6V283.8z"/>
	<path fill="#FFFFFF" d="M119.6,280.4h-4.2v2.5h4.1v1.5h-4.1v3.5h4.2v1.5h-5.8v-10.6h5.8V280.4z"/>
	<path fill="#FFFFFF" d="M123.9,285.2v4.3h-1.6v-10.6h1.8c0.9,0,1.6,0.1,2,0.2c0.5,0.1,0.9,0.4,1.2,0.7c0.6,0.6,0.9,1.3,0.9,2.2
		c0,1-0.3,1.7-1,2.3s-1.5,0.8-2.6,0.8H123.9z M123.9,283.7h0.6c1.5,0,2.2-0.6,2.2-1.7c0-1.1-0.8-1.6-2.3-1.6h-0.5V283.7z"/>
	<path fill="#FFFFFF" d="M131.9,278.9v6.4c0,0.9,0.1,1.6,0.4,2c0.4,0.6,1.1,0.9,1.9,0.9c0.8,0,1.4-0.3,1.9-0.9
		c0.3-0.4,0.4-1.1,0.4-2v-6.4h1.6v6.8c0,1.1-0.3,2-1,2.7c-0.8,0.8-1.7,1.2-2.9,1.2s-2.1-0.4-2.9-1.2c-0.7-0.7-1-1.6-1-2.7v-6.8
		H131.9z"/>
	<path fill="#FFFFFF" d="M141.3,289.5v-10.6h1.6c0.7,0,1.3,0.1,1.7,0.2c0.4,0.1,0.8,0.3,1.1,0.6c0.3,0.3,0.5,0.6,0.7,1
		c0.2,0.4,0.3,0.8,0.3,1.2c0,0.8-0.3,1.4-0.9,1.9c0.6,0.2,1,0.5,1.3,1c0.3,0.5,0.5,1,0.5,1.7c0,0.8-0.3,1.5-0.9,2.1
		c-0.4,0.4-0.7,0.6-1.2,0.7c-0.5,0.1-1.1,0.2-1.8,0.2H141.3z M142.9,283.5h0.5c0.6,0,1-0.1,1.3-0.4c0.3-0.3,0.4-0.6,0.4-1.2
		c0-0.5-0.1-0.9-0.4-1.1c-0.3-0.3-0.7-0.4-1.2-0.4h-0.6V283.5z M142.9,288h1c0.7,0,1.2-0.1,1.6-0.4c0.4-0.3,0.5-0.7,0.5-1.2
		c0-0.5-0.2-0.8-0.5-1.1c-0.3-0.3-0.9-0.5-1.8-0.5h-0.8V288z"/>
	<path fill="#FFFFFF" d="M151.7,278.9v9.1h3.1v1.5h-4.7v-10.6H151.7z"/>
	<path fill="#FFFFFF" d="M158.4,278.9v10.6h-1.6v-10.6H158.4z"/>
	<path fill="#FFFFFF" d="M169.4,279.5v1.9c-0.9-0.8-1.9-1.2-2.9-1.2c-1.1,0-2,0.4-2.7,1.2c-0.7,0.8-1.1,1.7-1.1,2.8
		c0,1.1,0.4,2,1.1,2.8s1.7,1.1,2.7,1.1c0.6,0,1-0.1,1.4-0.3c0.2-0.1,0.4-0.2,0.7-0.4c0.2-0.2,0.5-0.3,0.7-0.6v1.9
		c-0.9,0.5-1.9,0.8-2.9,0.8c-1.5,0-2.8-0.5-3.9-1.6c-1.1-1.1-1.6-2.3-1.6-3.8c0-1.3,0.4-2.5,1.3-3.6c1.1-1.3,2.5-1.9,4.2-1.9
		C167.6,278.7,168.5,279,169.4,279.5z"/>
	<path fill="#FFFFFF" d="M176.3,284.2c0-1.5,0.5-2.8,1.6-3.8c1.1-1.1,2.4-1.6,3.9-1.6c1.5,0,2.8,0.5,3.9,1.6
		c1.1,1.1,1.6,2.4,1.6,3.9c0,1.5-0.5,2.8-1.6,3.9c-1.1,1.1-2.4,1.6-3.9,1.6c-1.4,0-2.6-0.5-3.7-1.4
		C176.9,287.2,176.3,285.9,176.3,284.2z M177.9,284.2c0,1.2,0.4,2.1,1.2,2.9c0.8,0.8,1.7,1.1,2.7,1.1c1.1,0,2-0.4,2.8-1.1
		c0.8-0.8,1.1-1.7,1.1-2.8c0-1.1-0.4-2.1-1.1-2.8c-0.7-0.8-1.7-1.1-2.8-1.1c-1.1,0-2,0.4-2.8,1.1
		C178.3,282.1,177.9,283.1,177.9,284.2z"/>
	<path fill="#FFFFFF" d="M195.2,280.4h-3.7v2.5h3.5v1.5h-3.5v5h-1.6v-10.6h5.3V280.4z"/>
	<path fill="#FFFFFF" d="M205.4,280.4v9.1h-1.6v-9.1h-2.4v-1.5h6.4v1.5H205.4z"/>
	<path fill="#FFFFFF" d="M211.4,283.1h4.6v-4.1h1.6v10.6H216v-4.9h-4.6v4.9h-1.6v-10.6h1.6V283.1z"/>
	<path fill="#FFFFFF" d="M226.5,280.4h-4.2v2.5h4.1v1.5h-4.1v3.5h4.2v1.5h-5.8v-10.6h5.8V280.4z"/>
	<path fill="#FFFFFF" d="M235.6,278.9v10.6H234v-10.6H235.6z"/>
	<path fill="#FFFFFF" d="M238.2,289.5l2.2-11.3l3.6,8.2l3.8-8.2l2,11.3h-1.6l-1-6.4L244,290l-3-6.9l-1.1,6.4H238.2z"/>
	<path fill="#FFFFFF" d="M259,286.9h-4.5l-1.2,2.6h-1.7l5.2-11.2l5,11.2h-1.7L259,286.9z M258.4,285.4l-1.6-3.6l-1.6,3.6H258.4z"/>
	<path fill="#FFFFFF" d="M268.7,284h4.4v0.3c0,0.8-0.1,1.5-0.3,2.1c-0.2,0.6-0.5,1.1-0.9,1.6c-1,1.1-2.2,1.7-3.7,1.7
		c-1.5,0-2.7-0.5-3.8-1.6c-1.1-1.1-1.6-2.4-1.6-3.9c0-1.5,0.5-2.8,1.6-3.9c1.1-1.1,2.4-1.6,3.9-1.6c0.8,0,1.6,0.2,2.3,0.5
		c0.7,0.3,1.4,0.9,2,1.6l-1.1,1.1c-0.9-1.2-1.9-1.7-3.2-1.7c-1.1,0-2.1,0.4-2.8,1.2c-0.8,0.8-1.1,1.7-1.1,2.8c0,1.2,0.4,2.1,1.3,2.9
		c0.8,0.7,1.6,1.1,2.6,1.1c0.8,0,1.5-0.3,2.1-0.8c0.6-0.5,1-1.2,1-1.9h-2.6V284z"/>
	<path fill="#FFFFFF" d="M275.1,284.2c0-1.5,0.5-2.8,1.6-3.8c1.1-1.1,2.4-1.6,3.9-1.6c1.5,0,2.8,0.5,3.9,1.6
		c1.1,1.1,1.6,2.4,1.6,3.9c0,1.5-0.5,2.8-1.6,3.9c-1.1,1.1-2.4,1.6-3.9,1.6c-1.4,0-2.6-0.5-3.7-1.4
		C275.7,287.2,275.1,285.9,275.1,284.2z M276.7,284.2c0,1.2,0.4,2.1,1.2,2.9c0.8,0.8,1.7,1.1,2.7,1.1c1.1,0,2-0.4,2.8-1.1
		c0.8-0.8,1.1-1.7,1.1-2.8c0-1.1-0.4-2.1-1.1-2.8c-0.7-0.8-1.7-1.1-2.8-1.1c-1.1,0-2,0.4-2.8,1.1C277,282.1,276.7,283.1,276.7,284.2
		z"/>
	<path fill="#FFFFFF" d="M7.5,301.9H2.9l-1.2,2.6H0.1l5.2-11.2l5,11.2H8.6L7.5,301.9z M6.8,300.4l-1.6-3.6l-1.6,3.6H6.8z"/>
	<path fill="#FFFFFF" d="M13.9,293.9v10.6h-1.6v-10.6H13.9z"/>
	<path fill="#FFFFFF" d="M18.6,298.2l4.1-4.2h2.1l-4.8,4.8l4.8,5.8h-2.1l-3.8-4.7l-0.3,0.3v4.4H17v-10.6h1.6V298.2z"/>
	<path fill="#FFFFFF" d="M33.7,301.9h-4.5l-1.2,2.6h-1.7l5.2-11.2l5,11.2h-1.7L33.7,301.9z M33,300.4l-1.6-3.6l-1.6,3.6H33z"/>
	<path fill="#FFFFFF" d="M40.7,295.4v9.1h-1.6v-9.1h-2.4v-1.5h6.4v1.5H40.7z"/>
	<path fill="#FFFFFF" d="M51.1,295.5l-1.3,0.8c-0.2-0.4-0.5-0.7-0.7-0.8c-0.2-0.1-0.5-0.2-0.9-0.2c-0.4,0-0.8,0.1-1.1,0.4
		c-0.3,0.2-0.4,0.6-0.4,0.9c0,0.5,0.4,0.9,1.1,1.2l1.1,0.4c0.9,0.3,1.5,0.8,1.9,1.3c0.4,0.5,0.6,1.1,0.6,1.8c0,1-0.3,1.8-1,2.4
		c-0.7,0.6-1.5,1-2.4,1c-0.9,0-1.7-0.3-2.3-0.8c-0.6-0.5-1-1.3-1.1-2.3l1.6-0.4c0.1,0.6,0.2,1,0.4,1.3c0.3,0.5,0.8,0.7,1.4,0.7
		c0.5,0,0.9-0.2,1.2-0.5c0.3-0.3,0.5-0.8,0.5-1.3c0-0.2,0-0.4-0.1-0.6c-0.1-0.2-0.1-0.3-0.3-0.5c-0.1-0.1-0.3-0.3-0.5-0.4
		s-0.4-0.2-0.7-0.4l-1-0.4c-1.4-0.6-2.2-1.5-2.2-2.7c0-0.8,0.3-1.5,0.9-2c0.6-0.5,1.4-0.8,2.3-0.8C49.4,293.7,50.4,294.3,51.1,295.5
		z"/>
	<path fill="#FFFFFF" d="M55.4,293.9v6.4c0,0.9,0.1,1.6,0.4,2c0.4,0.6,1.1,0.9,1.9,0.9c0.8,0,1.4-0.3,1.9-0.9c0.3-0.4,0.4-1.1,0.4-2
		v-6.4h1.6v6.8c0,1.1-0.3,2-1,2.7c-0.8,0.8-1.7,1.2-2.9,1.2s-2.1-0.4-2.9-1.2c-0.7-0.7-1-1.6-1-2.7v-6.8H55.4z"/>
	<path fill="#FFFFFF" d="M64.6,303.7c0-0.3,0.1-0.5,0.3-0.7s0.4-0.3,0.7-0.3s0.5,0.1,0.7,0.3s0.3,0.4,0.3,0.7c0,0.3-0.1,0.5-0.3,0.7
		c-0.2,0.2-0.4,0.3-0.7,0.3c-0.3,0-0.5-0.1-0.7-0.3S64.6,304,64.6,303.7z M64.8,302.1v-8.2h1.5v8.2H64.8z"/>
	<path fill="#FFFFFF" d="M76.2,293.9v6.4c0,0.9,0.1,1.6,0.4,2c0.4,0.6,1.1,0.9,1.9,0.9c0.8,0,1.4-0.3,1.9-0.9c0.3-0.4,0.4-1.1,0.4-2
		v-6.4h1.6v6.8c0,1.1-0.3,2-1,2.7c-0.8,0.8-1.7,1.2-2.9,1.2s-2.1-0.4-2.9-1.2c-0.7-0.7-1-1.6-1-2.7v-6.8H76.2z"/>
	<path fill="#FFFFFF" d="M85.5,304.5v-11.3l7.7,8.1v-7.3h1.6v11.2l-7.7-8v7.4H85.5z"/>
	<path fill="#FFFFFF" d="M97.4,299.2c0-1.5,0.5-2.8,1.6-3.8c1.1-1.1,2.4-1.6,3.9-1.6c1.5,0,2.8,0.5,3.9,1.6c1.1,1.1,1.6,2.4,1.6,3.9
		c0,1.5-0.5,2.8-1.6,3.9c-1.1,1.1-2.4,1.6-3.9,1.6c-1.4,0-2.6-0.5-3.7-1.4C98,302.2,97.4,300.9,97.4,299.2z M99,299.2
		c0,1.2,0.4,2.1,1.2,2.9c0.8,0.8,1.7,1.1,2.7,1.1c1.1,0,2-0.4,2.8-1.1c0.8-0.8,1.1-1.7,1.1-2.8c0-1.1-0.4-2.1-1.1-2.8
		c-0.7-0.8-1.7-1.1-2.8-1.1c-1.1,0-2,0.4-2.8,1.1C99.4,297.1,99,298.1,99,299.2z"/>
	<path fill="#FFFFFF" d="M116.3,295.4h-3.7v2.5h3.5v1.5h-3.5v5H111v-10.6h5.3V295.4z"/>
	<path fill="#FFFFFF" d="M123.9,295.4h-3.7v2.5h3.5v1.5h-3.5v5h-1.6v-10.6h5.3V295.4z"/>
	<path fill="#FFFFFF" d="M127.7,293.9v10.6h-1.6v-10.6H127.7z"/>
	<path fill="#FFFFFF" d="M138.7,294.5v1.9c-0.9-0.8-1.9-1.2-2.9-1.2c-1.1,0-2,0.4-2.7,1.2c-0.7,0.8-1.1,1.7-1.1,2.8
		c0,1.1,0.4,2,1.1,2.8s1.7,1.1,2.7,1.1c0.6,0,1-0.1,1.4-0.3c0.2-0.1,0.4-0.2,0.7-0.4c0.2-0.2,0.5-0.3,0.7-0.6v1.9
		c-0.9,0.5-1.9,0.8-2.9,0.8c-1.5,0-2.8-0.5-3.9-1.6c-1.1-1.1-1.6-2.3-1.6-3.8c0-1.3,0.4-2.5,1.3-3.6c1.1-1.3,2.5-1.9,4.2-1.9
		C136.9,293.7,137.8,294,138.7,294.5z"/>
	<path fill="#FFFFFF" d="M143,293.9v10.6h-1.6v-10.6H143z"/>
	<path fill="#FFFFFF" d="M152.3,301.9h-4.5l-1.2,2.6h-1.7l5.2-11.2l5,11.2h-1.7L152.3,301.9z M151.7,300.4l-1.6-3.6l-1.6,3.6H151.7z
		"/>
	<path fill="#FFFFFF" d="M158.7,293.9v9.1h3.1v1.5h-4.7v-10.6H158.7z"/>
	<path fill="#FFFFFF" d="M174.1,295.4h-3.7v2.5h3.5v1.5h-3.5v5h-1.6v-10.6h5.3V295.4z"/>
	<path fill="#FFFFFF" d="M181.9,301.9h-4.5l-1.2,2.6h-1.7l5.2-11.2l5,11.2H183L181.9,301.9z M181.2,300.4l-1.6-3.6l-1.6,3.6H181.2z"
		/>
	<path fill="#FFFFFF" d="M186.7,304.5v-11.3l7.7,8.1v-7.3h1.6v11.2l-7.7-8v7.4H186.7z"/>
	<path fill="#FFFFFF" d="M199.1,304.5v-10.6h1.6c0.7,0,1.3,0.1,1.7,0.2c0.4,0.1,0.8,0.3,1.1,0.6c0.3,0.3,0.5,0.6,0.7,1
		c0.2,0.4,0.3,0.8,0.3,1.2c0,0.8-0.3,1.4-0.9,1.9c0.6,0.2,1,0.5,1.3,1c0.3,0.5,0.5,1,0.5,1.7c0,0.8-0.3,1.5-0.9,2.1
		c-0.4,0.4-0.7,0.6-1.2,0.7c-0.5,0.1-1.1,0.2-1.8,0.2H199.1z M200.7,298.5h0.5c0.6,0,1-0.1,1.3-0.4c0.3-0.3,0.4-0.6,0.4-1.2
		c0-0.5-0.1-0.9-0.4-1.1c-0.3-0.3-0.7-0.4-1.2-0.4h-0.6V298.5z M200.7,303h1c0.7,0,1.2-0.1,1.6-0.4c0.4-0.3,0.5-0.7,0.5-1.2
		c0-0.5-0.2-0.8-0.5-1.1c-0.3-0.3-0.9-0.5-1.8-0.5h-0.8V303z"/>
	<path fill="#FFFFFF" d="M207.3,299.2c0-1.5,0.5-2.8,1.6-3.8c1.1-1.1,2.4-1.6,3.9-1.6c1.5,0,2.8,0.5,3.9,1.6
		c1.1,1.1,1.6,2.4,1.6,3.9c0,1.5-0.5,2.8-1.6,3.9c-1.1,1.1-2.4,1.6-3.9,1.6c-1.4,0-2.6-0.5-3.7-1.4
		C207.9,302.2,207.3,300.9,207.3,299.2z M208.9,299.2c0,1.2,0.4,2.1,1.2,2.9c0.8,0.8,1.7,1.1,2.7,1.1c1.1,0,2-0.4,2.8-1.1
		c0.8-0.8,1.1-1.7,1.1-2.8c0-1.1-0.4-2.1-1.1-2.8c-0.7-0.8-1.7-1.1-2.8-1.1c-1.1,0-2,0.4-2.8,1.1
		C209.3,297.1,208.9,298.1,208.9,299.2z"/>
	<path fill="#FFFFFF" d="M220.4,299.2c0-1.5,0.5-2.8,1.6-3.8c1.1-1.1,2.4-1.6,3.9-1.6c1.5,0,2.8,0.5,3.9,1.6
		c1.1,1.1,1.6,2.4,1.6,3.9c0,1.5-0.5,2.8-1.6,3.9c-1.1,1.1-2.4,1.6-3.9,1.6c-1.4,0-2.6-0.5-3.7-1.4
		C221,302.2,220.4,300.9,220.4,299.2z M222,299.2c0,1.2,0.4,2.1,1.2,2.9c0.8,0.8,1.7,1.1,2.7,1.1c1.1,0,2-0.4,2.8-1.1
		c0.8-0.8,1.1-1.7,1.1-2.8c0-1.1-0.4-2.1-1.1-2.8c-0.7-0.8-1.7-1.1-2.8-1.1c-1.1,0-2,0.4-2.8,1.1C222.4,297.1,222,298.1,222,299.2z"
		/>
	<path fill="#FFFFFF" d="M235.6,298.2l4.1-4.2h2.1l-4.8,4.8l4.8,5.8h-2.1l-3.8-4.7l-0.3,0.3v4.4H234v-10.6h1.6V298.2z"/>
	<path fill="#FFFFFF" d="M248.7,304.5v-11.3l7.7,8.1v-7.3h1.6v11.2l-7.7-8v7.4H248.7z"/>
	<path fill="#FFFFFF" d="M261.1,304.5v-11.3l7.7,8.1v-7.3h1.6v11.2l-7.7-8v7.4H261.1z"/>
	<path fill="#FFFFFF" d="M273.6,304.5v-11.3l7.7,8.1v-7.3h1.6v11.2l-7.7-8v7.4H273.6z"/>
	<path fill="#FFFFFF" d="M286,304.5v-11.3l7.7,8.1v-7.3h1.6v11.2l-7.7-8v7.4H286z"/>
	<path fill="#FFFFFF" d="M298.4,304.5v-11.3l7.7,8.1v-7.3h1.6v11.2l-7.7-8v7.4H298.4z"/>
	<path fill="#FFFFFF" d="M322.8,296.9v1.2h-1.7l-0.2,2h1.5v1.2h-1.7l-0.4,3.3l-1.2-0.2l0.4-3.1h-2l-0.4,3.3l-1.2-0.2l0.4-3.1h-1.6
		v-1.2h1.7l0.2-2h-1.6v-1.2h1.7l0.4-3.1l1.2,0.2l-0.4,2.9h2l0.4-3.1l1.2,0.2l-0.4,2.9H322.8z M319.9,298.1h-2l-0.2,2h2L319.9,298.1z
		"/>
	<path fill="#FFFFFF" d="M327.4,303h3.9v1.5h-7.1l3.7-4.4c0.4-0.4,0.7-0.8,0.9-1.1c0.2-0.3,0.4-0.6,0.6-0.8c0.3-0.4,0.4-0.8,0.4-1.2
		c0-0.5-0.2-0.9-0.5-1.2s-0.8-0.5-1.3-0.5c-1.1,0-1.7,0.6-1.8,1.9h-1.6c0.3-2.2,1.4-3.3,3.4-3.3c1,0,1.8,0.3,2.4,0.9
		c0.7,0.6,1,1.4,1,2.3c0,0.6-0.2,1.1-0.5,1.7c-0.2,0.3-0.4,0.6-0.7,1c-0.3,0.4-0.7,0.9-1.1,1.4L327.4,303z"/>
</g>
</svg>
