<?xml version="1.0" encoding="utf-8"?>
<!-- Generator: Adobe Illustrator 18.1.0, SVG Export Plug-In . SVG Version: 6.00 Build 0)  -->
<!DOCTYPE svg PUBLIC "-//W3C//DTD SVG 1.1//EN" "http://www.w3.org/Graphics/SVG/1.1/DTD/svg11.dtd">
<svg version="1.1" id="レイヤー_1" xmlns="http://www.w3.org/2000/svg" xmlns:xlink="http://www.w3.org/1999/xlink" x="0px"
	 y="0px" viewBox="0 0 200 164" enable-background="new 0 0 200 164" xml:space="preserve">
<g>
	<path fill="#FFFFFF" d="M98.3,111.8L42.4,55.9L98.3,0l55.9,55.9L98.3,111.8z M45.1,55.9l53.2,53.2l53.2-53.2L98.3,2.7L45.1,55.9z"
		/>
	<path fill="#FFFFFF" d="M98.3,83.6c-15.3,0-27.7-12.4-27.7-27.7c0-15.3,12.4-27.7,27.7-27.7c15.3,0,27.7,12.4,27.7,27.7
		C126,71.2,113.6,83.6,98.3,83.6z M98.3,30.1c-14.2,0-25.8,11.6-25.8,25.8s11.6,25.8,25.8,25.8s25.8-11.6,25.8-25.8
		S112.5,30.1,98.3,30.1z"/>
	<path fill="#FFFFFF" d="M98.3,77.9c-12.1,0-22-9.9-22-22s9.9-22,22-22s22,9.9,22,22S110.4,77.9,98.3,77.9z M98.3,35.9
		c-11.1,0-20.1,9-20.1,20.1S87.2,76,98.3,76s20.1-9,20.1-20.1S109.4,35.9,98.3,35.9z"/>
	<path fill="#FFFFFF" d="M98.3,72.2c-9,0-16.2-7.3-16.2-16.2s7.3-16.2,16.2-16.2c9,0,16.2,7.3,16.2,16.2S107.2,72.2,98.3,72.2z
		 M98.3,41.6C90.4,41.6,84,48,84,55.9s6.4,14.3,14.3,14.3s14.3-6.4,14.3-14.3S106.2,41.6,98.3,41.6z"/>
	<path fill="#FFFFFF" d="M98.3,55.9"/>
	<polygon fill="#FFFFFF" points="101.7,60.6 94.9,53.9 92.2,56.6 90.9,55.2 94.9,51.2 101.7,57.9 104.4,55.2 105.7,56.6 	"/>
</g>
<g>
	<path fill="#FFFFFF" d="M166.8,154.1c-0.9-0.7-1.9-1-3-1.1c-0.7-0.1-1.4-0.4-2.1-0.6c-0.8-0.3-1.6-0.4-2.4-0.1
		c-1,0.3-1.8,0.1-2.6-0.6c-1.3-1.1-2.9-2-4.5-2.7c-0.8-0.3-1.2-0.1-1.2,0.7c0,0.9,0,1.9,0.1,2.8c0.1,1.7,0.1,3.3,0.2,4.9
		c0,0.5,0.2,0.9,0.3,1.4c0.1,0.3,0.1,0.7,0,0.9c-0.1,0.2-0.4,0.4-0.6,0.4c-0.2,0-0.5-0.2-0.6-0.4c-0.2-0.8-0.3-1.7-0.3-2.5
		c0.1-1,0-2-0.2-3c-0.2-1-0.3-2.1-0.5-3.2c-0.1-0.5-0.1-0.9-0.2-1.4c-0.7,0.4-1.1,0.9-1.4,1.5c-0.5,1-1.1,2-1.7,3
		c-0.6,0.9-1.2,1.9-1.9,2.7c-0.3,0.4-0.7,0.6-1.2,1c-0.4-0.5-0.4-0.9-0.1-1.3c0.9-1.5,1.9-3,2.8-4.5c0.6-1,1.1-1.9,1.6-2.9
		c0.3-0.6,0.1-1-0.6-1.2c-0.5-0.1-1-0.1-1.5-0.1c-1.7,0-3.4,0-5,0c-0.4,0-0.8,0-0.8-0.5c0-0.5,0.4-0.7,0.8-0.7
		c0.7-0.1,1.4-0.2,2.1-0.2c1.2,0.1,2.4-0.1,3.5-0.1c0.6,0,1.2,0,1.8,0c0.7,0,0.9-0.2,0.9-0.9c0-0.4-0.1-0.9-0.1-1.3
		c-0.3-2.2-0.7-4.4-1-6.6c-0.1-0.4,0-0.7-0.1-1.1c-0.4-0.3-0.8-0.4-1.2,0.1c-0.7,1-1.5,1.9-2,3c-0.8,1.6-1.9,3.1-1.6,5.1
		c0.1,0.5-0.2,0.8-0.8,0.8c-0.6,0-0.6-0.4-0.6-0.8c-0.2-1.6,0.6-3,1.1-4.5c0.7-1.9,2-3.5,3.1-5.2c0.6-0.9,1.4-1.5,2.4-1.9
		c1.1-0.5,1.9,0,1.9,1.2c0,0.6-0.2,1.1-0.3,1.7c-0.1,0.4-0.2,0.8-0.2,1.2c0.1,1.7,0.1,3.5,0.4,5.2c0.2,1.2,0.8,2.3,1.4,3.3
		c0.1,0.3,0.6,0.5,0.9,0.5c0.9,0,1.9-0.1,2.8-0.2c1-0.2,1.5-0.8,1.2-1.8c-0.5-1.9-0.5-3.9-0.5-5.8c0-0.3,0-0.6,0.1-0.9
		c0.2-0.7,1-1,1.6-0.7c0.8,0.3,1.6,0.5,2.3,0.9c1.4,0.8,3,0.8,4.4,1.3c1.6,0.5,1.8,0.8,1.8,2.5c0,1.1-0.2,2.2,0.1,3.2
		c0.8,2.6,0.7,5.4,1.7,8C167.7,153.5,167.5,153.8,166.8,154.1z M158,139.1c-0.5-0.1-0.7,0.2-0.8,0.6c-0.1,0.4-0.1,0.9-0.1,1.3
		c0.1,1.2,0.3,2.3,0.4,3.5c0.2,1.4,0.3,2.8,0.5,4.2c0.1,0.8,0.5,1.3,1.2,1.5c1.7,0.5,3.4,0.9,5.1,1.3c0.7,0.2,1.1-0.3,0.9-1
		c-0.1-0.4-0.2-0.8-0.3-1.3c-0.2-2.1-0.4-4.2-0.6-6.3c0-0.2,0-0.5,0-0.7c0.1-1.1-0.2-1.6-1.3-1.9c-1.2-0.3-2.3-0.6-3.5-0.9
		C158.9,139.3,158.5,139.2,158,139.1z M155.3,147.4c-0.4,0-0.7,0.1-0.8,0.5c-0.1,0.5,0.1,0.7,0.5,0.8c0.3,0.1,0.6,0.4,0.9,0.4
		c0.2,0,0.5-0.2,0.6-0.3C156.6,148.1,156,147.4,155.3,147.4z"/>
	<path fill="#FFFFFF" d="M58.6,131.4c0.5-0.5,1-0.6,1.6-0.6c3.5,0,6.9,0,10.4,0.1c1.5,0,3,0,4.5,0c1.6,0,2.5,0.9,2.7,2.5
		c0.1,1.4,0.1,2.8,0.1,4.1c0,1.7,0,3.4,0,5.1c0,0.5,0,1.1-0.7,1.5c-0.2-0.3-0.5-0.7-0.5-1c0-1-0.7-1.3-1.5-1.5
		c-0.7-0.1-1.3-0.2-2-0.2c-0.5,0-0.9,0.4-0.8,1c0,0.4,0.1,0.8,0.3,1.2c0.7,1.5,1.5,2.9,2.3,4.4c0.4,0.7,1,0.9,1.7,0.9
		c0.5,0,1,0,1.5,0c0.8,0.1,1.7,0.3,2.5,0.5c0.4,0.1,0.7,0.4,0.5,0.8c-0.1,0.4-0.4,0.8-0.9,0.7c-0.8-0.1-1.7-0.2-2.5-0.3
		c-0.9-0.1-1.2,0.1-1,1.1c0.1,0.4,0.3,0.8,0.5,1.2c0.4,0.6,0.9,1.3,1.4,1.9c0.8,1,2.8,1.2,3.9,0.4c0.4-0.3,0.7-0.6,1.1-0.9
		c0.3-0.2,0.6-0.4,0.9-0.5c0.5-0.1,0.7,0.2,0.7,0.6c0,0.2-0.1,0.5-0.2,0.7c-1.1,1-2,2.3-3.7,2.2c-0.1,0-0.3,0-0.4,0
		c-1.9,0.2-3.2-0.7-4.1-2.3c-0.7-1.1-1.2-2.2-1.9-3.3c-0.4-0.7-0.9-1.3-1.8-1.4c-1-0.1-2-0.4-3.1-0.7c-1.2-0.3-2.4-0.5-3.6-0.9
		c-1.1-0.3-2.1-0.8-2.8-2c-0.1,0.5-0.3,0.8-0.3,1.1c0,0.6,0.1,1.2,0.2,1.7c0.5,1.9,1,3.8,1.6,5.6c0.2,0.7,0.7,1.4,1.2,2
		c0.2,0.3,0.3,0.6,0,0.9c-0.3,0.2-1,0.1-1.2-0.2c-0.4-0.7-0.7-1.4-1-2.1c-0.4-0.9-0.8-1.8-1.1-2.7c-0.2-0.5-0.4-0.9-0.5-1.4
		c-0.8-3.2-1.2-6.5-1.2-9.8c0-0.6-0.2-1.2-0.8-1.5c-0.8-0.5-0.7-1.3,0.1-1.7c0.6-0.3,0.7-0.6,0.7-1.2c0-0.7-0.1-1.5,0-2.2
		c0-0.4,0-0.8,0.2-1.2c0.1-0.3,0.5-0.6,0.7-0.6c0.4,0,0.7,0.3,0.7,0.8c0,0.6-0.1,1.2-0.1,1.8c0,0.4-0.1,0.7,0,1.1
		c0,0.9,0.4,1.3,1.3,1.4c2.1,0.3,4.1,0.6,6.2,0.9c1.6,0.2,3.2,0.5,4.8,0.7c1.2,0.2,1.6-0.2,1.6-1.4c0-0.9,0.1-1.8,0-2.7
		c-0.1-0.9-0.2-1.8-0.4-2.7c-0.1-0.6-0.7-0.7-1.2-0.7c-1.8,0-3.5,0-5.3-0.1c-2.5-0.1-5,0-7.5,0.2c-0.8,0.1-1.7,0-2.5-0.1
		C59,132.6,58.8,132.4,58.6,131.4z M63.8,146.6c0.7-0.9,1.3-0.4,1.9,0c1,0.5,2,1,3,1.4c1,0.3,2.1,0.3,3.1,0.4c0.3,0,0.7-0.1,0.9-0.3
		c0.1-0.2,0.1-0.7,0-0.9c-0.4-0.8-1-1.6-1.3-2.5c-0.3-0.7-0.6-1.5-0.7-2.3c-0.1-1-0.2-1.2-1.2-1.3c-1.3-0.2-2.7-0.5-4-0.6
		c-0.6-0.1-1.2-0.1-1.8-0.1c-0.5,0-0.8,0.2-0.9,0.8c-0.2,1.6,0.2,3.2,0.5,4.8C63.2,146,63.5,146.2,63.8,146.6z"/>
	<path fill="#FFFFFF" d="M40,149.3c-0.3,1.3-1.3,2.3-1.2,3.8c0,0.1,0,0.1,0,0.2c0,0.9-0.3,1.2-0.9,1.2c-0.5,0-1-0.6-0.8-1.3
		c0.4-1.6,0.9-3.2,1.4-4.7c0.3-0.9,0.7-1.8,1.1-2.7c0.3-0.6,0.6-1.2,0.8-1.8c0.3-0.6,0.1-0.9-0.4-1.2c-1.4-0.8-1.6-1.5-0.8-2.8
		c0.3-0.5,0.6-0.9,0.9-1.3c0.3-0.4,0.7-0.8,1.1-1.3c-0.6-0.1-1-0.2-1.5-0.3c-0.9-0.2-1.8-0.4-2.6-0.7c-1.1-0.5-1.3-1.4-0.5-2.3
		c0.7-0.9,1.4-1.7,2.2-2.5c0.9-0.8,1.8-1.6,2.8-2.4c0.9-0.7,2-0.9,3.1-0.6c0.2,0.1,0.4,0.4,0.6,0.5c-0.2,0.2-0.4,0.5-0.7,0.5
		c-2.1-0.1-3.3,1.3-4.5,2.7c-0.4,0.5-1,0.8-1.4,1.3c-0.3,0.4-0.5,0.8-0.7,1.3c0.7,0.6,1.3,0.6,2,0.6c0.6,0.1,1.2,0.1,1.8,0.2
		c0.9,0.2,1.7,0,2.4-0.7c0.6-0.6,1.3-1.2,2.1-1.8c0.8-0.6,1.5-0.5,2.4,0.1c-0.2,0.2-0.3,0.4-0.5,0.5c-1.3,0.7-2.3,1.8-3.3,2.9
		c-0.4,0.4-0.9,0.7-1.3,1.1c-1.2,0.8-2.4,1.6-2.9,3.1c0.6,0.2,1.1,0.1,1.4-0.3c0.2-0.2,0.3-0.3,0.5-0.5c0.7-0.6,1.3-0.7,1.9,0
		c0.5,0.5,1,0.5,1.6,0.4c0.9-0.2,1.8-0.5,2.7-0.7c0.6-0.1,1.2-0.3,1.8-0.3c0.7,0,1.1,0.3,1.1,1c0.1,2,0,4,0.1,6c0,0.6,0.3,1.3,0.4,2
		c0,0,0,0.1-0.1,0.1c-0.9,0.4-1.3,1.1-1.7,2c-0.3,0.9-0.9,1.6-1.4,2.4c-0.4,0.7-0.4,1.1,0.4,1.6c1.8,1.1,3.6,2.3,5.4,3.3
		c0.8,0.5,1.7,0.8,2.3,1.6c-0.5,0.4-0.9,0.5-1.5,0.2c-1.6-0.8-3.2-1.5-4.8-2.3c-0.8-0.4-1.7-0.9-2.5-1.4c-0.6-0.4-1-0.3-1.4,0.2
		c-0.5,0.8-1,1.6-1.4,2.4c-0.3,0.6-0.5,1.2-0.8,1.8c-0.3,0.5-0.7,0.7-1.2,0.5c-0.4-0.2-0.5-0.6-0.2-1.2c0.5-1.5,1.1-2.9,2.1-4.2
		c0.5-0.6,0.3-1.3-0.3-1.9c-0.4-0.4-1-0.6-1.4-1c-1.1-1-2.1-1.9-3.2-2.9c-0.1-0.1-0.2-0.3-0.3-0.5C40.1,149.2,40.1,149.2,40,149.3z
		 M42.2,145.9c0.5-0.9,1.1-1.1,2-0.8c1.4,0.4,2.8,0.7,4.2,1.1c0.3,0.1,0.6,0.2,0.9,0.2c0.6,0.1,1-0.2,1-0.8c0.1-1.2,0.1-2.4,0.1-3.5
		c0-0.5-0.3-0.8-0.7-0.7c-0.6,0-1.3,0.1-1.9,0.2c-1.6,0.4-3.1,0.9-4.7,1.3c-0.3,0.1-0.7,0.4-0.8,0.7c-0.6,1.2-1.1,2.4-1.6,3.6
		c-0.2,0.4,0,0.8,0.3,1.1c1.4,1.3,2.8,2.7,4.4,3.7c0.5,0.3,1,0.6,1.4,0.8c1-0.8,1.7-1.8,2.2-2.9c0.4-0.8,0.3-1.7-0.9-2
		c-1.8-0.4-3.6-1-5.3-1.5C42.5,146.1,42.4,146,42.2,145.9z"/>
	<path fill="#FFFFFF" d="M176.8,159.1c-0.2,0.2-0.3,0.5-0.5,0.7c-0.3,0.5-0.7,0.9-1.3,0.8c-0.5-0.1-1-0.9-0.9-1.5
		c0-0.8,0.1-1.5,0.1-2.3c0-1.9,0-3.7,0.1-5.6c0-1.1,0.3-2.2,0.3-3.3c0.1-1.7,0.2-3.4,0-5c-0.2-1.7,0-3.3-0.1-4.9
		c0-2.8,0.1-5.5,0.2-8.3c0-0.7,0.2-1.3,0.8-1.8c0.6-0.4,1.2-0.2,1.3,0.4c0.1,0.8,0.6,0.9,1.2,0.9c2.4,0,4.8,0,7.2,0.1
		c1.3,0.1,2.6,0.4,3.9,0.5c1.1,0.2,2.3,0.3,3.4,0.5c1.9,0.3,3.3,1.2,3.9,3.2c0.5,1.7,0.4,3.5,0.8,5.3c0.2,0.9,0.2,1.8,0.3,2.7
		c0.3,2.8,0.7,5.5,0.9,8.3c0.1,1.7,0.1,3.5,0.2,5.3c0.1,0.9,0.2,1.8,0.5,2.7c0.2,0.8,0.2,1.7,0.8,2.3c0.1,0.1,0,0.8-0.1,0.9
		c-0.2,0.2-0.8,0.3-1,0.1c-1.1-0.8-2.3-0.6-3.5-0.7c-2.2-0.1-4.4-0.1-6.7-0.2c-1.5,0-3.1-0.1-4.6-0.2c-0.3,0-0.6-0.1-0.8,0
		c-1.5,0.4-3,0-4.5-0.4C178.1,159.6,177.5,159.3,176.8,159.1z M175.9,158.4c0.1,0,0.1,0,0.2,0c0.1-0.2,0.2-0.4,0.3-0.6
		c0.3-0.6,0.6-0.7,1.1-0.2c0.2,0.2,0.4,0.4,0.6,0.6c0.4,0.3,0.8,0.6,1.3,0.7c1.7,0.2,3.5,0.3,5.2,0.3c3.7-0.1,7.5-0.3,11.2-0.4
		c0.9,0,1.1-0.4,1.1-1.2c-0.1-2.5-0.1-5-0.2-7.5c0-1.2-0.1-2.5-0.3-3.7c-0.1-1.4-0.4-2.7-0.6-4.1c-0.3-2.6-0.6-5.3-0.9-7.9
		c-0.1-1.1-0.8-1.9-1.8-2.2c-1-0.3-2.1-0.5-3.1-0.7c-1.3-0.2-2.5-0.3-3.8-0.7c-1.2-0.3-2.4-0.4-3.6-0.4c-1.3,0.1-2.5,0.2-3.8,0.2
		c-0.6,0-1.2,0.3-1.8-0.1c-0.1-0.1-0.5,0.1-0.5,0.3c-0.2,0.3-0.2,0.6-0.3,1c-0.1,1.6-0.1,3.3-0.2,5c0,0.9-0.2,1.9-0.2,2.8
		c0,0.5,0.2,1.1,0.2,1.6c0,1.4-0.1,2.8-0.2,4.2c-0.1,2-0.1,4-0.2,6.1c0,2,0,3.9,0,5.9C175.7,157.6,175.9,158,175.9,158.4z"/>
	<path fill="#FFFFFF" d="M129.6,145c-0.9-0.9-1.9-1.5-3.1-1.4c-0.9,0-1.9,0.1-2.8,0.1c-0.6,0-1.1-0.2-1.7-0.5
		c-0.9-0.5-1.9-0.8-2.8-1.1c-0.2-0.1-0.6-0.1-0.8-0.2c-0.9-0.5-1.8-0.6-2.8-0.6c-0.3,0-0.5-0.1-0.8-0.2c-0.3-0.1-0.5-0.4-0.5-0.8
		c0-0.5,0.3-0.8,0.7-0.8c0.8,0,1.5,0.1,2.3,0.2c1,0.2,1.9,0.5,2.9,0.7c0.6,0.1,1.2-0.3,1.2-0.9c0-1.6,0-3.2-0.1-4.7
		c-0.1-1.1-0.3-1.2-1.4-1.3c-1.5-0.1-3-0.2-4.4,0.1c-0.5,0.1-0.9,0-1.2-0.7c0.6-0.3,1.2-0.7,1.8-0.8c1-0.1,2.1-0.1,3.1-0.1
		c0.3,0,0.5,0.1,0.8,0c1.5-0.1,1.7-0.4,1.7-1.9c0-0.9,0-1.9,0-2.8c0-0.9,0.3-1.6,1.2-1.9c0.6,0.4,0.6,0.8,0.4,1.4
		c-0.3,1.1-0.7,2.2-0.6,3.4c0.1,1.5,0.4,1.7,1.8,1.8c1.5,0.1,3,0.3,4.5,0.5c0.7,0.1,1-0.1,1.2-0.7c0.2-0.5,0.5-1,0.5-1.5
		c0-1.2,0.8-2.2,1.2-3.3c0.3-0.9,0.9-1.7,1.4-2.6c0.1-0.2,0.2-0.4,0.4-0.6c0.3-0.3,1-0.4,1.2-0.2c0.2,0.4,0.2,0.9-0.2,1.2
		c-0.7,0.5-1.3,1.2-1.6,2.1c-0.2,0.5-0.4,1-0.5,1.5c-0.2,0.8-0.4,1.7-0.7,2.5c-0.1,0.2-0.1,0.5-0.1,0.7c0,0.8,0.1,1,0.9,1.2
		c0.9,0.2,1.8,0.5,2.6,0.7c0.2,0,0.4,0.1,0.5,0.2c0.2,0.3,0.4,0.6,0.4,0.8c0,0.2-0.4,0.5-0.6,0.5c-0.6,0-1.2-0.2-1.8-0.3
		c-0.6-0.1-1.3-0.2-1.9-0.3c-0.5,0-0.8,0.3-0.9,0.8c-0.2,2-0.5,4-0.7,6c-0.1,0.7,0.2,1,0.9,1.1c1.4,0.2,2.9,0.3,4.3,0.4
		c1,0.1,2,0,3,0.1c0.7,0,1,0.4,0.9,1c-0.1,0.6-0.5,0.7-1,0.7c-1,0-1.9-0.2-2.9-0.3c-0.9-0.1-1.8-0.2-2.7-0.2c-0.2,0-0.3,0-0.5,0
		C131.2,143.8,130.3,144,129.6,145z M122.7,137C122.7,137,122.7,137,122.7,137c0,1,0,2,0,3c0,0.6,0.3,1,0.9,1.2
		c1.3,0.7,2.8,0.7,4.2,0.8c0.6,0,0.9-0.3,0.9-0.9c0.2-1.9,0.5-3.8,0.7-5.7c0.1-0.9,0-1.3-0.9-1.4c-1.7-0.2-3.3-0.3-5-0.4
		c-0.6,0-0.9,0.4-0.8,1C122.7,135.4,122.7,136.2,122.7,137z"/>
	<path fill="#FFFFFF" d="M106.9,137.4c-1.1,0.6-2.1,0.3-3.2,0.1c-1.4-0.2-2.8-0.5-4.2-0.7c-0.4,0-0.8,0.2-1.4,0.3
		c0.4,2,0.8,3.8,1.2,5.7c0.1,0.6,0.2,1.1,0.3,1.7c0.1,0.9,0.3,1.2,1.2,1.5c1.4,0.4,2.9,0.7,4.3,1.1c1.1,0.3,2.1,0.6,3.2,1
		c0.3,0.1,0.5,0.4,0.6,0.7c0.2,0.5-0.1,0.7-0.5,0.7c-0.4,0-0.9-0.1-1.3-0.3c-2.2-1.1-4.6-1.5-7-1.8c-0.5,0.5-0.4,1.1-0.2,1.7
		c0.2,0.7,0.2,1.3,0.1,2c0,1.2,0.1,2.3,0.3,3.5c0.1,0.5,0.4,0.7,0.9,0.7c1.5,0,3,0.1,4.4,0.1c1.1,0,2.2-0.1,3.2,0c0.7,0,1,0.3,1,0.9
		c0,0.5-0.2,0.8-0.7,0.8c-0.3,0-0.7,0-1,0c-2.1-0.1-4.2,0-6.3-0.2c-2.4-0.3-4.7-0.8-7.1-1.2c-1.6-0.3-3.1-0.6-4.7-0.8
		c-0.9-0.2-0.9-0.1-1.5-0.8c0.4-0.1,0.8-0.4,1.1-0.3c1.1,0.1,2.2-0.1,3.2,0.6c0.1,0.1,0.2,0.1,0.3,0.1c1.6,0.2,3.2,0.3,4.8,0.5
		c0.6,0.1,0.8-0.3,0.8-0.8c-0.1-1.5-0.2-3-0.3-4.4c-0.1-0.6-0.2-1.1-0.3-1.7c-0.2-1-0.8-1.6-1.8-1.8c-1-0.2-2-0.4-3.1-0.6
		c-0.9-0.2-1.8-0.3-2.7,0.2c-0.3-0.3-0.7-0.5-1-0.8c0.4-0.5,0.8-0.6,1.3-0.6c1.8,0.1,3.7,0.1,5.5,0.6c1.3,0.4,1.6,0,1.3-1.4
		c-0.3-1.3-0.5-2.5-0.8-3.8c-0.2-0.9-0.3-1.7,0.1-2.6c0.3-0.8,0-1.2-0.9-1.3c-2.3-0.1-4.6-0.1-7-0.2c-0.2,0-0.3,0-0.5,0
		c-0.4-0.1-0.7-0.2-0.8-0.6c-0.1-0.4,0.1-0.7,0.5-0.9c0.7-0.4,1.4-0.4,2.2-0.3c1.8,0.3,3.5,0.6,5.3,0.9c0.2,0,0.4,0.2,0.6,0.1
		c2.8-0.3,5.5,1,8.3,0.9c0.3,0,0.7,0.1,1,0.1C106.7,136.3,106.8,136.4,106.9,137.4z"/>
	<path fill="#FFFFFF" d="M0.2,148.6c-0.3-0.9-0.3-1.8,0-2.7c0.3-1,0.6-1.9,1.1-2.8c0.7-1.6,1.5-3.2,2.3-4.7c0.7-1.4,1.5-2.8,2.3-4.2
		c1-1.9,2.2-3.7,3.5-5.5c0.2-0.2,0.4-0.4,0.6-0.6c0.3-0.2,0.5-0.6,0.9-0.2c0.3,0.3,0.2,0.9-0.1,1.3c-0.3,0.3-0.7,0.6-1,1
		c-0.6,0.6-0.8,1.3-1,2.2c0.4,0.1,0.7,0.2,1.1,0.2c1.2,0,2.3,0.3,3.4,0.8c1.8,0.9,3.7,1.7,5.6,2.6c1.3,0.6,2.4,1.6,3.3,2.8
		c0.2,0.3,0.6,0.6,1.1,0.9c0.3-0.6,0.5-1,0.7-1.5c0.8-1.7,1.6-3.3,2.5-4.9c0.5-0.9,0.8-2,1.9-2.5c0.7,0.6,0.7,0.6,0.3,1.4
		c-0.8,1.4-1.8,2.7-2.3,4.2c-0.6,1.9-1.6,3.5-2.4,5.3c-0.2,0.4-0.2,0.8-0.3,1.2c-0.1,0.4-0.2,0.7-0.7,0.8c-0.5,0-0.7-0.2-0.9-0.6
		c-0.3-0.7-0.7-1.4-0.8-2.2c-0.2-1.4-1.3-2.2-2.4-2.9c-1.3-0.8-2.6-1.5-3.9-2.3c-0.1-0.1-0.2-0.2-0.4-0.2c-1.5-0.2-2.8-1.1-4.3-1.5
		c-0.7-0.2-1.5-0.1-2.3-0.1c-0.2,0-0.3,0.3-0.5,0.5c-0.9,1.6-1.7,3.1-2.6,4.7c-0.9,1.8-1.8,3.5-2.7,5.3c-0.5,1.2-0.9,2.5-1.4,3.7
		c-0.1,0.3-0.3,0.5-0.4,0.8C0.4,148.6,0.3,148.6,0.2,148.6z"/>
	<path fill="#FFFFFF" d="M28.4,143.7c-0.8,0.4-1.2,0.8-1.6,1.4c-0.9,1.3-1.9,2.4-2.9,3.6c-0.7,0.9-1.4,1.9-2.1,2.8
		c-0.3,0.4-0.7,0.7-1.1,1.1c-0.6-0.5-0.7-1-0.3-1.5c1.5-2.1,2.9-4.2,4.4-6.3c1.5-2.1,3-4.1,4.6-6.1c0.9-1.1,1.8-2.1,2.8-3.2
		c0.1-0.1,0.2-0.2,0.3-0.2c0.6-0.3,1.1-0.2,1.2,0.2c0.2,0.5-0.1,0.8-0.5,1.1c-0.5,0.4-1.1,0.8-1.6,1.4c-0.5,0.6-1,1.3-1.4,2
		c-0.2,0.3-0.2,0.8-0.2,1.2c0,1,0,2,0,2.9c-0.1,3.2-0.1,6.3-0.2,9.5c0,1.5-0.2,3,0.3,4.4c0.1,0.4,0.1,0.7-0.3,1
		c-0.3,0.2-1.1,0-1.2-0.4c-0.3-0.7-0.7-1.5-0.7-2.3c0-3,0.2-5.9,0.3-8.9C28.5,146.2,28.4,145,28.4,143.7z"/>
	<path fill="#FFFFFF" d="M15.4,164c-0.1-0.4-0.3-0.7-0.3-1.1c0.1-1.6,0.1-3.3,0.5-4.9c0.4-1.6,0.3-3.3,0.4-4.9
		c0-0.4-0.1-0.8-0.1-1.2c0-1-0.5-1.8-1.1-2.4c-1.7-1.6-3.7-2.5-6.1-2.6c-0.1,0-0.3,0-0.4,0c-0.5,0-0.6-0.3-0.6-0.7
		c0-0.4,0.2-0.6,0.6-0.6c1,0,2-0.1,3,0.4c0.8,0.4,1.6,0.7,2.4,1.2c1.6,0.9,2.9,2,3.5,3.7c0.1,0.2,0.2,0.5,0.2,0.8
		c0.1,1.2,0.2,2.4,0.2,3.6c0,0.6,0,1.3-0.2,1.9c-0.4,2-0.8,3.9-1.3,5.9c-0.1,0.3-0.2,0.6-0.4,1C15.7,164,15.5,164,15.4,164z"/>
	<path fill="#FFFFFF" d="M118.4,157.6c0.4-2.9,0.5-6,1.6-8.9c0.2-0.5,0.5-0.9,0.8-1.2c0.3-0.3,1.2-0.4,1.4-0.1
		c0.2,0.3,0.2,0.9,0.1,1.2c-0.8,1.3-1.2,2.7-1.3,4.2c-0.3,2-0.4,3.9-0.6,5.9c-0.1,1.1,0.4,1.5,1.5,1.4c0.2,0,0.5,0,0.7,0.1
		c0.2,0.1,0.4,0.4,0.5,0.6c0,0.2-0.1,0.5-0.3,0.6c-1,0.6-2,0.8-3.1,0.3c-0.7-0.3-0.8-0.9-0.9-1.6
		C118.5,159.3,118.5,158.5,118.4,157.6z"/>
	<path fill="#FFFFFF" d="M128,149.2c0.9-0.5,1.1-0.6,1.4,0.1c0.6,1.1,1,2.2,1.4,3.3c0.4,1.1,0.5,2.2,0.8,3.3
		c0.3,1.1,0.6,2.3,0.9,3.4c0.3,0.8,0.7,1.5,1,2.2c0.1,0.2,0.3,0.5,0.2,0.7c0,0.3-0.2,0.6-0.4,0.7c-0.2,0.1-0.5,0-0.7-0.1
		c-0.8-0.7-1.4-1.6-1.7-2.7c-0.6-2.3-1.1-4.7-1.7-7c-0.2-0.9-0.6-1.8-0.9-2.8C128.2,150,128.1,149.6,128,149.2z"/>
	<path fill="#FFFFFF" d="M93.1,128.2c0.5-1.4,1.6-1.8,2.8-1.1c1.1,0.6,2.1,1.4,3.2,2.1c1,0.6,2.1,1.2,3.1,1.9
		c0.4,0.3,0.8,0.6,1.2,0.9c0.1,0.1,0.3,0.4,0.2,0.6c-0.1,0.2-0.4,0.4-0.5,0.4c-0.5-0.1-1.1-0.2-1.6-0.5c-1.8-1.2-3.6-2.5-5.4-3.6
		c-0.4-0.3-1-0.3-1.5-0.4C94,128.3,93.6,128.3,93.1,128.2z"/>
	<path fill="#FFFFFF" d="M10.9,141.2c-1.2,0.1-2.4,0.2-3.6,0.2c-0.2,0-0.4,0-0.6-0.1c-0.2-0.1-0.5-0.3-0.6-0.6
		c0-0.1,0.3-0.4,0.5-0.6c0.2-0.2,0.5-0.3,0.7-0.3c1.3,0,2.5,0,3.8,0c0.9,0,1.9,0,2.8,0c0.2,0,0.5-0.1,0.6,0c0.2,0.2,0.4,0.4,0.5,0.7
		c0,0.1-0.2,0.4-0.4,0.5c-0.3,0.1-0.7,0.2-1.1,0.2C12.7,141.2,11.8,141.2,10.9,141.2C10.9,141.2,10.9,141.2,10.9,141.2z"/>
	<path fill="#FFFFFF" d="M189.7,148.4c0.9-0.7,1.7-0.5,2.4-0.2c1.1,0.5,1.9,1.4,2.2,2.6c0.3,1,0.5,2,0.6,3.1c0,0.3-0.1,0.9-0.3,1.1
		c-0.4,0.3-0.8,0.1-1.2-0.2c-0.4-0.2-0.9-0.5-1.3-0.4c-1.8,0-3.5,0-5.2-0.4c-0.1,0-0.2,0-0.3,0c-1.5,0.3-2.9-0.1-4.2-0.9
		c-0.8-0.5-1.6-1-2.3-1.6c-0.2-0.2-0.3-0.7-0.3-1c0-0.2,0.2-0.5,0.5-0.6c0.1-0.1,0.4,0.2,0.6,0.3c1.2,1.3,1.1,1.3,3,2
		c0.1-0.3,0.3-0.6,0.3-0.9c0-2.1,0.1-4.2,0.1-6.4c0-0.9-0.3-1.1-1.2-1.1c-0.8,0-1.7-0.1-2.4,0.5c-0.3,0.2-0.7,0.1-1.1,0.1
		c0-1.1,0.3-1.5,1.1-1.6c0.8-0.1,1.6,0,2.4,0c0.9,0,1.1-0.1,1.3-1.1c0.1-0.5,0.1-1.1,0.2-1.6c0-0.7-0.4-1.1-1.1-1
		c-1.2,0.1-2.4,0.2-3.6,0.3c-0.4,0-0.6-0.1-0.8-0.5c-0.1-0.4-0.3-0.8,0.2-1c0.4-0.2,0.8-0.3,1.1-0.3c1.1,0,2.1,0.1,3.2,0.1
		c0.2,0,0.4,0,0.6,0c1.3-0.3,2.6,0,3.9,0.1c1,0.1,2,0.1,2.9,0.1c0.4,0,0.7,0,1.1,0.1c0.5,0.1,0.7,0.5,0.7,1c0,0.5-0.4,0.6-0.9,0.6
		c-1.2,0-2.4-0.1-3.5-0.1c-0.2,0-0.3,0-0.5-0.1c-1.6-0.1-2.4,1-1.9,2.5c0.1,0.5,0.5,0.8,0.9,0.8c1.3,0.1,2.5,0.6,3.6,1.1
		c1,0.4,1.8,1.1,2.7,1.7c0.4,0.3,0.4,0.5-0.1,1.3c-1.1-0.6-2.3-1.1-3.3-1.8c-1-0.7-2.2-0.6-3.3-0.8c-0.5-0.1-0.8,0.4-0.8,1.1
		c0,1.1,0,2.3,0,3.4c0,0.7-0.1,1.3-0.1,2c0,1.7,0.5,2.1,2.1,2.1c1,0,2-0.1,2.9-0.1c0.4,0,0.8,0,1.2,0.1c0.9,0.1,1.1-0.2,1.1-1.1
		c-0.1-1.5-1-2.3-2.2-2.9C190.5,148.8,190.1,148.6,189.7,148.4z"/>
</g>
</svg>
